<mxfile host="app.diagrams.net" agent="Mozilla/5.0 (Macintosh; Intel Mac OS X 10_15_7) AppleWebKit/605.1.15 (KHTML, like Gecko) Version/17.2.1 Safari/605.1.15" version="26.0.4">
  <diagram name="Page-1" id="pPSrBJM4WEQoc_CNQ326">
    <mxGraphModel dx="2190" dy="1946" grid="1" gridSize="10" guides="1" tooltips="1" connect="1" arrows="1" fold="1" page="1" pageScale="1" pageWidth="827" pageHeight="1169" math="0" shadow="0">
      <root>
        <mxCell id="0" />
        <mxCell id="1" parent="0" />
        <mxCell id="_NPNoaHagfOl9uVdmqBt-1" value="" style="shape=umlActor;verticalLabelPosition=bottom;verticalAlign=top;html=1;outlineConnect=0;" vertex="1" parent="1">
          <mxGeometry x="-30" y="110" width="100" height="180" as="geometry" />
        </mxCell>
        <mxCell id="_NPNoaHagfOl9uVdmqBt-3" value="&amp;lt;&amp;lt;controller&amp;gt;&amp;gt;&lt;div&gt;CancelReservation&lt;/div&gt;" style="rounded=0;whiteSpace=wrap;html=1;" vertex="1" parent="1">
          <mxGeometry x="330" y="145" width="190" height="110" as="geometry" />
        </mxCell>
        <mxCell id="_NPNoaHagfOl9uVdmqBt-4" value="UserProfile" style="rounded=0;whiteSpace=wrap;html=1;" vertex="1" parent="1">
          <mxGeometry x="850" y="-200" width="190" height="110" as="geometry" />
        </mxCell>
        <mxCell id="_NPNoaHagfOl9uVdmqBt-5" value="order" style="rounded=0;whiteSpace=wrap;html=1;" vertex="1" parent="1">
          <mxGeometry x="850" y="145" width="190" height="110" as="geometry" />
        </mxCell>
        <mxCell id="_NPNoaHagfOl9uVdmqBt-6" value="payment" style="rounded=0;whiteSpace=wrap;html=1;" vertex="1" parent="1">
          <mxGeometry x="850" y="490" width="190" height="110" as="geometry" />
        </mxCell>
        <mxCell id="_NPNoaHagfOl9uVdmqBt-7" value="" style="endArrow=none;html=1;rounded=0;exitX=0.5;exitY=0.5;exitDx=0;exitDy=0;exitPerimeter=0;entryX=0;entryY=0.5;entryDx=0;entryDy=0;" edge="1" parent="1" source="_NPNoaHagfOl9uVdmqBt-1" target="_NPNoaHagfOl9uVdmqBt-3">
          <mxGeometry width="50" height="50" relative="1" as="geometry">
            <mxPoint x="470" y="320" as="sourcePoint" />
            <mxPoint x="520" y="270" as="targetPoint" />
          </mxGeometry>
        </mxCell>
        <mxCell id="_NPNoaHagfOl9uVdmqBt-8" value="" style="endArrow=none;html=1;rounded=0;exitX=1;exitY=0.5;exitDx=0;exitDy=0;entryX=0;entryY=0.5;entryDx=0;entryDy=0;" edge="1" parent="1" source="_NPNoaHagfOl9uVdmqBt-3" target="_NPNoaHagfOl9uVdmqBt-4">
          <mxGeometry width="50" height="50" relative="1" as="geometry">
            <mxPoint x="470" y="320" as="sourcePoint" />
            <mxPoint x="520" y="270" as="targetPoint" />
          </mxGeometry>
        </mxCell>
        <mxCell id="_NPNoaHagfOl9uVdmqBt-9" value="" style="endArrow=none;html=1;rounded=0;exitX=1;exitY=0.5;exitDx=0;exitDy=0;entryX=0;entryY=0.5;entryDx=0;entryDy=0;" edge="1" parent="1" source="_NPNoaHagfOl9uVdmqBt-3" target="_NPNoaHagfOl9uVdmqBt-5">
          <mxGeometry width="50" height="50" relative="1" as="geometry">
            <mxPoint x="470" y="320" as="sourcePoint" />
            <mxPoint x="520" y="270" as="targetPoint" />
          </mxGeometry>
        </mxCell>
        <mxCell id="_NPNoaHagfOl9uVdmqBt-10" value="" style="endArrow=none;html=1;rounded=0;exitX=1;exitY=0.5;exitDx=0;exitDy=0;entryX=0;entryY=0.5;entryDx=0;entryDy=0;" edge="1" parent="1" source="_NPNoaHagfOl9uVdmqBt-3" target="_NPNoaHagfOl9uVdmqBt-6">
          <mxGeometry width="50" height="50" relative="1" as="geometry">
            <mxPoint x="470" y="320" as="sourcePoint" />
            <mxPoint x="520" y="270" as="targetPoint" />
          </mxGeometry>
        </mxCell>
        <mxCell id="_NPNoaHagfOl9uVdmqBt-11" value="" style="endArrow=classic;html=1;rounded=0;" edge="1" parent="1">
          <mxGeometry width="50" height="50" relative="1" as="geometry">
            <mxPoint x="60" y="80" as="sourcePoint" />
            <mxPoint x="320" y="80" as="targetPoint" />
          </mxGeometry>
        </mxCell>
        <mxCell id="_NPNoaHagfOl9uVdmqBt-12" value="1.requestcancellation(ReservationID)" style="text;html=1;align=center;verticalAlign=middle;whiteSpace=wrap;rounded=0;" vertex="1" parent="1">
          <mxGeometry x="138" y="50" width="60" height="30" as="geometry" />
        </mxCell>
        <mxCell id="_NPNoaHagfOl9uVdmqBt-14" value="" style="endArrow=classic;html=1;rounded=0;" edge="1" parent="1">
          <mxGeometry width="50" height="50" relative="1" as="geometry">
            <mxPoint x="620" y="140" as="sourcePoint" />
            <mxPoint x="830" y="140" as="targetPoint" />
          </mxGeometry>
        </mxCell>
        <mxCell id="_NPNoaHagfOl9uVdmqBt-15" value="" style="endArrow=classic;html=1;rounded=0;" edge="1" parent="1">
          <mxGeometry width="50" height="50" relative="1" as="geometry">
            <mxPoint x="620" y="166" as="sourcePoint" />
            <mxPoint x="830" y="166" as="targetPoint" />
          </mxGeometry>
        </mxCell>
        <mxCell id="_NPNoaHagfOl9uVdmqBt-16" value="2.Retriveorderinfo(reservationID)" style="text;html=1;align=center;verticalAlign=middle;whiteSpace=wrap;rounded=0;" vertex="1" parent="1">
          <mxGeometry x="620" y="100" width="180" height="50" as="geometry" />
        </mxCell>
        <mxCell id="_NPNoaHagfOl9uVdmqBt-17" value="" style="endArrow=classic;html=1;rounded=0;" edge="1" parent="1">
          <mxGeometry width="50" height="50" relative="1" as="geometry">
            <mxPoint x="621" y="190" as="sourcePoint" />
            <mxPoint x="831" y="190" as="targetPoint" />
          </mxGeometry>
        </mxCell>
        <mxCell id="_NPNoaHagfOl9uVdmqBt-18" value="" style="endArrow=classic;html=1;rounded=0;" edge="1" parent="1">
          <mxGeometry width="50" height="50" relative="1" as="geometry">
            <mxPoint x="820" y="220" as="sourcePoint" />
            <mxPoint x="620" y="220" as="targetPoint" />
          </mxGeometry>
        </mxCell>
        <mxCell id="_NPNoaHagfOl9uVdmqBt-20" value="" style="endArrow=classic;html=1;rounded=0;" edge="1" parent="1">
          <mxGeometry width="50" height="50" relative="1" as="geometry">
            <mxPoint x="819" y="237" as="sourcePoint" />
            <mxPoint x="619" y="237" as="targetPoint" />
          </mxGeometry>
        </mxCell>
        <mxCell id="_NPNoaHagfOl9uVdmqBt-21" value="" style="endArrow=classic;html=1;rounded=0;" edge="1" parent="1">
          <mxGeometry width="50" height="50" relative="1" as="geometry">
            <mxPoint x="822" y="255" as="sourcePoint" />
            <mxPoint x="622" y="255" as="targetPoint" />
          </mxGeometry>
        </mxCell>
        <mxCell id="_NPNoaHagfOl9uVdmqBt-22" value="3.Orderdetails(ord_details)" style="text;html=1;align=center;verticalAlign=middle;whiteSpace=wrap;rounded=0;" vertex="1" parent="1">
          <mxGeometry x="690" y="194" width="60" height="30" as="geometry" />
        </mxCell>
        <mxCell id="_NPNoaHagfOl9uVdmqBt-23" value="4.checkplicy(ord_details)" style="text;html=1;align=center;verticalAlign=middle;whiteSpace=wrap;rounded=0;" vertex="1" parent="1">
          <mxGeometry x="660" y="138" width="60" height="30" as="geometry" />
        </mxCell>
        <mxCell id="_NPNoaHagfOl9uVdmqBt-24" value="5.cancellationconfirmation(boolean)" style="text;html=1;align=center;verticalAlign=middle;whiteSpace=wrap;rounded=0;" vertex="1" parent="1">
          <mxGeometry x="698" y="213" width="60" height="30" as="geometry" />
        </mxCell>
        <mxCell id="_NPNoaHagfOl9uVdmqBt-25" value="6.update_status(reservationID, &quot;cancelled&quot;)" style="text;html=1;align=center;verticalAlign=middle;whiteSpace=wrap;rounded=0;" vertex="1" parent="1">
          <mxGeometry x="583" y="164" width="290" height="30" as="geometry" />
        </mxCell>
        <mxCell id="_NPNoaHagfOl9uVdmqBt-26" value="7.statusUpdated(boolean)" style="text;html=1;align=center;verticalAlign=middle;whiteSpace=wrap;rounded=0;" vertex="1" parent="1">
          <mxGeometry x="680" y="230" width="60" height="30" as="geometry" />
        </mxCell>
        <mxCell id="_NPNoaHagfOl9uVdmqBt-27" value="8.processrefund(Ord_ID,amount)" style="text;html=1;align=center;verticalAlign=middle;whiteSpace=wrap;rounded=0;" vertex="1" parent="1">
          <mxGeometry x="698" y="280" width="60" height="30" as="geometry" />
        </mxCell>
        <mxCell id="_NPNoaHagfOl9uVdmqBt-28" value="" style="endArrow=classic;html=1;rounded=0;" edge="1" parent="1">
          <mxGeometry width="50" height="50" relative="1" as="geometry">
            <mxPoint x="640" y="310" as="sourcePoint" />
            <mxPoint x="820" y="310" as="targetPoint" />
          </mxGeometry>
        </mxCell>
        <mxCell id="_NPNoaHagfOl9uVdmqBt-29" value="" style="endArrow=classic;html=1;rounded=0;" edge="1" parent="1">
          <mxGeometry width="50" height="50" relative="1" as="geometry">
            <mxPoint x="820" y="560" as="sourcePoint" />
            <mxPoint x="650" y="560" as="targetPoint" />
          </mxGeometry>
        </mxCell>
        <mxCell id="_NPNoaHagfOl9uVdmqBt-31" value="9.refundconfirmation(bool)" style="text;html=1;align=center;verticalAlign=middle;whiteSpace=wrap;rounded=0;" vertex="1" parent="1">
          <mxGeometry x="710" y="530" width="60" height="30" as="geometry" />
        </mxCell>
        <mxCell id="_NPNoaHagfOl9uVdmqBt-32" value="10.update_c_worth(custID,Status)" style="text;html=1;align=center;verticalAlign=middle;whiteSpace=wrap;rounded=0;" vertex="1" parent="1">
          <mxGeometry x="660" y="-200" width="60" height="30" as="geometry" />
        </mxCell>
        <mxCell id="_NPNoaHagfOl9uVdmqBt-33" value="" style="endArrow=classic;html=1;rounded=0;" edge="1" parent="1">
          <mxGeometry width="50" height="50" relative="1" as="geometry">
            <mxPoint x="600" y="-170" as="sourcePoint" />
            <mxPoint x="780" y="-170" as="targetPoint" />
          </mxGeometry>
        </mxCell>
        <mxCell id="_NPNoaHagfOl9uVdmqBt-34" value="" style="endArrow=classic;html=1;rounded=0;" edge="1" parent="1">
          <mxGeometry width="50" height="50" relative="1" as="geometry">
            <mxPoint x="300" y="240" as="sourcePoint" />
            <mxPoint x="80" y="240" as="targetPoint" />
          </mxGeometry>
        </mxCell>
        <mxCell id="_NPNoaHagfOl9uVdmqBt-35" value="11.confirmcancellation(statemessage)" style="text;html=1;align=center;verticalAlign=middle;whiteSpace=wrap;rounded=0;" vertex="1" parent="1">
          <mxGeometry x="170" y="213" width="60" height="30" as="geometry" />
        </mxCell>
      </root>
    </mxGraphModel>
  </diagram>
</mxfile>
